<svg xmlns="http://www.w3.org/2000/svg" viewBox="0.864 0.72 32 32" overflow="visible"><path class="placeholder-shape" fill="#eee" d="M.864 9.677V32.72h16.49c10.34 0 15.51-3.027 15.51-9.084V.72h-15.96C6.08.72.864 3.75.864 9.677z"/><path d="M7.985 8.524c1.642 0 2.827.233 3.554.698.492-.465 1.055-.698 1.7-.698h.2c.406 0 .6.046.6.14V25.08c0 1.336-.498 2.492-1.498 3.465-1.176.965-2.395 1.447-3.656 1.447h-6.22l-.1-.088v-.7c0-1.008.546-1.693 1.638-2.057l.47-.04h3.555c1.574 0 2.476-.47 2.704-1.408.127-.314.2-.686.2-1.117v-1.168h-.038c-.93.338-1.8.508-2.577.508-2.768 0-4.575-1-5.42-2.996-.347-.822-.52-1.787-.52-2.895v-4.076c0-2.505 1.075-4.2 3.225-5.053.813-.245 1.544-.368 2.196-.368zM5.5 13.996v4.253c0 1.438.47 2.297 1.4 2.576l1.168.14h.698c1.557 0 2.336-.953 2.336-2.857v-3.884l.05-.42c0-1.33-.686-2.107-2.057-2.336l-1.08-.05c-1.684 0-2.526.86-2.526 2.577zm9.897-12.492h.812c1.04 0 1.735.546 2.082 1.638l.05.432v2.222l-.102.102h-.292c-1.77 0-2.653-.82-2.653-2.463v-1.83l.102-.1zm0 7.02h.622c1.1 0 1.824.465 2.17 1.396a3.5 3.5 0 0 1 .152 1.016v13.368l-.102.102h-.432c-1.193 0-1.968-.447-2.323-1.346-.127-.305-.2-.676-.2-1.117V8.626l.102-.102zm9.607 0c1.642 0 2.827.233 3.555.698.5-.465 1.054-.698 1.688-.698h.2c.406 0 .6.046.6.14V25.08c0 1.336-.5 2.492-1.498 3.465-1.177.965-2.396 1.447-3.656 1.447h-6.22l-.1-.088v-.7c0-1.008.546-1.693 1.638-2.057l.47-.04h3.555c1.574 0 2.476-.47 2.704-1.408.127-.314.2-.686.2-1.117v-1.168h-.06c-.93.338-1.8.508-2.577.508-2.768 0-4.574-1-5.42-2.996-.347-.822-.52-1.787-.52-2.895v-4.076c0-2.505 1.075-4.2 3.225-5.053.814-.245 1.546-.368 2.197-.368zm-2.475 5.472v4.253c0 1.438.47 2.297 1.4 2.576l1.168.14h.698c1.558 0 2.336-.953 2.336-2.857v-3.884l.05-.42c0-1.33-.686-2.107-2.057-2.336l-1.08-.05c-1.684 0-2.526.86-2.526 2.577z" fill="#fff" class="placeholder-foreground"/></svg>
